<svg xmlns="http://www.w3.org/2000/svg" width="1160" height="536" viewBox="0 0 1160 536" role="img" aria-label="rust probe">
  
  <rect width="1160" height="536" rx="24" fill="#0B1220" stroke="#1E293B" stroke-width="2"/>
  <path d="M0 24 A24 24 0 0 1 24 0 H1136 A24 24 0 0 1 1160 24 V72 H0 Z" fill="#0F172A"/>
  <line x1="0" y1="72" x2="1160" y2="72" stroke="#1E293B" stroke-width="2"/>
  <circle cx="44" cy="36" r="8" fill="#334155"/>
  <circle cx="70" cy="36" r="8" fill="#334155"/>
  <circle cx="96" cy="36" r="8" fill="#334155"/>
  <text x="132" y="43" font-family="'JetBrains Mono','Fira Code',ui-monospace,SFMono-Regular,Menlo,Consolas,monospace" font-size="20" fill="#64748B">collect_visible_videos</text>
  <text x="1116" y="43" text-anchor="end" font-family="'JetBrains Mono','Fira Code',ui-monospace,SFMono-Regular,Menlo,Consolas,monospace" font-size="20" fill="#64748B">rust probe</text>
  
  <text x="44" y="144" font-family="'JetBrains Mono','Fira Code',ui-monospace,SFMono-Regular,Menlo,Consolas,monospace" font-size="22" fill="#64748B">milliseconds end to end, one pass replaced by an early-exit probe</text>
  <rect x="224" y="170" width="12" height="12" fill="#475569"/>
  <text x="244" y="180" font-family="'JetBrains Mono','Fira Code',ui-monospace,SFMono-Regular,Menlo,Consolas,monospace" font-size="18" fill="#64748B">before</text>
  <rect x="370" y="170" width="12" height="12" fill="#34D399"/>
  <text x="390" y="180" font-family="'JetBrains Mono','Fira Code',ui-monospace,SFMono-Regular,Menlo,Consolas,monospace" font-size="18" fill="#34D399">after</text>
  <text x="44" y="222" font-family="'JetBrains Mono','Fira Code',ui-monospace,SFMono-Regular,Menlo,Consolas,monospace" font-size="22" fill="#E2E8F0">run 1</text>
  <rect x="240" y="192" width="422.3105882352941" height="22" rx="4" fill="#475569"/>
  <text x="674.3105882352941" y="209" font-family="'JetBrains Mono','Fira Code',ui-monospace,SFMono-Regular,Menlo,Consolas,monospace" font-size="18" fill="#64748B">166.96 ms</text>
  <rect x="240" y="220" width="181.10588235294117" height="22" rx="4" fill="#34D399"/>
  <text x="433.1058823529412" y="237" font-family="'JetBrains Mono','Fira Code',ui-monospace,SFMono-Regular,Menlo,Consolas,monospace" font-size="18" fill="#34D399">71.60 ms</text>
  <text x="1116" y="220" text-anchor="end" font-family="'JetBrains Mono','Fira Code',ui-monospace,SFMono-Regular,Menlo,Consolas,monospace" font-size="26" fill="#22D3EE">2.33x</text>
  <text x="44" y="314" font-family="'JetBrains Mono','Fira Code',ui-monospace,SFMono-Regular,Menlo,Consolas,monospace" font-size="22" fill="#E2E8F0">run 2</text>
  <rect x="240" y="284" width="401.9235294117647" height="22" rx="4" fill="#475569"/>
  <text x="653.9235294117648" y="301" font-family="'JetBrains Mono','Fira Code',ui-monospace,SFMono-Regular,Menlo,Consolas,monospace" font-size="18" fill="#64748B">158.90 ms</text>
  <rect x="240" y="312" width="182.11764705882354" height="22" rx="4" fill="#34D399"/>
  <text x="434.11764705882354" y="329" font-family="'JetBrains Mono','Fira Code',ui-monospace,SFMono-Regular,Menlo,Consolas,monospace" font-size="18" fill="#34D399">72.00 ms</text>
  <text x="1116" y="312" text-anchor="end" font-family="'JetBrains Mono','Fira Code',ui-monospace,SFMono-Regular,Menlo,Consolas,monospace" font-size="26" fill="#22D3EE">2.21x</text>
  <text x="44" y="406" font-family="'JetBrains Mono','Fira Code',ui-monospace,SFMono-Regular,Menlo,Consolas,monospace" font-size="22" fill="#E2E8F0">run 3</text>
  <rect x="240" y="376" width="393.8294117647058" height="22" rx="4" fill="#475569"/>
  <text x="645.8294117647058" y="393" font-family="'JetBrains Mono','Fira Code',ui-monospace,SFMono-Regular,Menlo,Consolas,monospace" font-size="18" fill="#64748B">155.70 ms</text>
  <rect x="240" y="404" width="160.7441176470588" height="22" rx="4" fill="#34D399"/>
  <text x="412.74411764705883" y="421" font-family="'JetBrains Mono','Fira Code',ui-monospace,SFMono-Regular,Menlo,Consolas,monospace" font-size="18" fill="#34D399">63.55 ms</text>
  <text x="1116" y="404" text-anchor="end" font-family="'JetBrains Mono','Fira Code',ui-monospace,SFMono-Regular,Menlo,Consolas,monospace" font-size="26" fill="#22D3EE">2.45x</text>
  <rect x="791" y="474" width="325" height="38" rx="19" fill="#0E2A21" stroke="#1F6F4A"/>
  <text x="953.5" y="500" text-anchor="middle" font-family="'JetBrains Mono','Fira Code',ui-monospace,SFMono-Regular,Menlo,Consolas,monospace" font-size="18" fill="#34D399">exact video order asserted</text>
  
</svg>
